<svg xmlns="http://www.w3.org/2000/svg" width="18.199" height="18.2" viewBox="0 0 18.199 18.2">
  <g id="instagram-icon" transform="translate(-7.383 -7.401)">
    <path id="Tracé_1025" data-name="Tracé 1025" d="M25.582,10.918V22.083A3.521,3.521,0,0,1,22.065,25.6H10.9a3.52,3.52,0,0,1-3.517-3.518V10.918A3.52,3.52,0,0,1,10.9,7.4H22.064a3.521,3.521,0,0,1,3.518,3.517ZM21.459,16.5a4.977,4.977,0,1,1-9.587-1.867H9.155v7.45A1.744,1.744,0,0,0,10.9,23.826H22.063a1.745,1.745,0,0,0,1.744-1.743v-7.45H21.09a4.917,4.917,0,0,1,.369,1.867Zm-4.977,3.2a3.2,3.2,0,1,0-3.2-3.2,3.208,3.208,0,0,0,3.2,3.2Zm6.994-7.121V9.5l-3.085.01.01,3.085,3.075-.01Z" fill="#fff"/>
  </g>
</svg>
