<svg xmlns="http://www.w3.org/2000/svg" xmlns:xlink="http://www.w3.org/1999/xlink" width="155.432" height="31.045" viewBox="0 0 155.432 31.045">
  <defs>
    <clipPath id="clip-path">
      <rect id="Rectangle_146" data-name="Rectangle 146" width="155.432" height="31.045" transform="translate(0.843)" fill="#e3000b"/>
    </clipPath>
  </defs>
  <g id="Logo-Isuzu" transform="translate(-0.843)" clip-path="url(#clip-path)">
    <path id="Tracé_793" data-name="Tracé 793" d="M68.509,30.939c.551,0,3.9-.021,6.6-.24A7.369,7.369,0,0,0,81.3,27.265c1.531-2.31,1.521-6.642,1.519-10.012,0-3.764.043-14.671.029-15.643S82.519.126,81.559.136s-3.671,0-4.6.009L75.3.136c-.961-.009-1.278.5-1.292,1.474V2.655c.014,1.154-.013,12.158-.017,14.738v1.143c-.026,2.376-.275,4.687-3.165,5.045a21.966,21.966,0,0,1-3.363.221,22.334,22.334,0,0,1-3.38-.221c-2.889-.353-3.065-2.669-3.092-5.045V17.393c0-2.58-.031-13.583-.019-14.738V1.61C60.96.634,60.641.126,59.682.136L58.022.145c-.93-.009-3.638,0-4.6-.009s-1.277.5-1.288,1.474,0,11.879-.008,15.643c0,3.371-.01,7.7,1.519,10.012A7.311,7.311,0,0,0,59.794,30.7c2.7.221,5.954.24,6.674.24ZM9.772,29.524c-.019,1.059-.288,1.477-1.221,1.5s-5.517.014-6.351.006-1.343-.3-1.345-1.34S.849,2.63.843,1.641,1.241.19,2.118.221s5.374-.028,6.569,0C9.59.21,9.8.815,9.805,1.9c.022,1.454-.011,26.574-.033,27.628Zm124.811-10.53c.017,2.443.525,4.078,2.934,4.514a30.526,30.526,0,0,0,6.539.043c1.832-.234,3.243-1.1,3.326-3.51.093-2.037.1-2.388.107-4.536.009-5.213-.039-12.784-.025-13.528l.008-.316C147.458.507,147.911.02,148.752.02l.5-.02c.957.009,4.808.02,5.741.02.841,0,1.294.487,1.279,1.642l-.012.36c.018,1.088-.01,12.62-.021,16.023-.053,1.709-.158,5.69-1.29,8.214a6.819,6.819,0,0,1-5.752,4.222,89.4,89.4,0,0,1-15.076.193c-3.01-.181-4.949-.964-6.557-3.043-1.821-2.383-1.916-6.455-1.889-11.126-.035-10.307-.062-13.277-.048-14.26V1.662c-.014-1.154.439-1.642,1.28-1.642l.5-.02c.966.009,4.962.02,5.9.02.838,0,1.295.487,1.278,1.642s0,14.358,0,17.266ZM89.719.111c.9-.031,17-.009,22.038.023,4.458.058,6.106.8,7.317,2.678a7.234,7.234,0,0,1,.412,7.144,10.752,10.752,0,0,1-4.555,4.287c-1.784,1.065-4.907,2.682-7.96,4.244-4.089,2.1-7.791,3.917-8.413,4.3-.843.514-.524,1.284.145,1.273,1.747-.024,18.615-.184,19.516-.186s1.2.377,1.2,1.506c0,1.181.008,3.2.01,4.116-.021,1.1-.323,1.4-1.22,1.413-1.025.013-18.994.018-20.272.025-2.84-.008-5.766,0-7.511-.978a6.256,6.256,0,0,1-2.918-5.428c.1-4.216,2.125-5.566,5.766-7.528,4.049-2.136,16-8.147,16.713-8.532.882-.478.609-1.418-.21-1.387-.629.015-18.936.124-19.84.123S88.46,7.028,88.46,6.011s-.008-3.55-.008-4.595.363-1.271,1.267-1.3ZM42.438,15.965c-4.05-1.956-15.866-6.3-17.434-7.2-.755-.377-.7-1.5.318-1.5,1.745.03,19.065.069,19.97.076s1.284-.406,1.284-1.538c0-1.18,0-3.345-.015-4.3C46.549.54,46.249.174,45.5.171S24.751.2,24.751.2c-5.583-.015-7.015.94-8.6,3.148-2.062,2.881-1.406,6.781-.223,8.792,1.333,2.25,3.533,3.244,7.034,4.669,4.241,1.6,14.229,5.688,14.229,5.688.915.46.846,1.575-.285,1.575,0,0-19.052-.2-19.955-.2s-1.346.512-1.35,1.527-.008,2.876-.012,3.932.261,1.641,1.165,1.678,17.281-.036,22.318-.048c3.833-.012,7.535-1.388,8.295-6.309.455-4.24-1.089-6.869-4.933-8.684" transform="translate(0 0)" fill="#e3000b"/>
  </g>
</svg>
