<svg xmlns="http://www.w3.org/2000/svg" width="166.027" height="24.506" viewBox="0 0 166.027 24.506">
  <g id="poweredByBoteca" transform="translate(-1740.96 -3104)">
    <path id="Tracé_34" data-name="Tracé 34" d="M14.167,13.1a6.893,6.893,0,0,1-7.029,7.22,6.356,6.356,0,0,1-5.83-3.46v3.351H0V0H1.362V9.236A6.366,6.366,0,0,1,7.138,5.885a6.878,6.878,0,0,1,7.029,7.22m-1.362,0A5.663,5.663,0,0,0,7.056,7.111,5.642,5.642,0,0,0,1.335,13.1,5.642,5.642,0,0,0,7.056,19.1,5.663,5.663,0,0,0,12.8,13.1" transform="translate(1818.251 3104)" fill="#383c3c"/>
    <path id="Tracé_35" data-name="Tracé 35" d="M122.759,26.193a4.316,4.316,0,0,1-2.915,1.008,3.527,3.527,0,0,1-3.869-3.869v-9.29h-2.616V12.871h2.616V9.765h1.362v3.106h4.523v1.172h-4.523V23.2c0,1.825.9,2.833,2.643,2.833a3.269,3.269,0,0,0,2.207-.79Z" transform="translate(1738.419 3097.123)" fill="#383c3c"/>
    <path id="Tracé_36" data-name="Tracé 36" d="M164.508,27.444H152.275a6.085,6.085,0,0,0,10.571,3.678l.79.9a6.806,6.806,0,0,1-5.367,2.316,6.982,6.982,0,0,1-7.329-7.22c0-4.223,2.915-7.22,6.811-7.22s6.784,2.943,6.784,7.165c0,.109-.027.245-.027.382M152.3,26.381h10.9a5.451,5.451,0,0,0-10.9,0" transform="translate(1711.953 3089.988)" fill="#383c3c"/>
    <path id="Tracé_37" data-name="Tracé 37" d="M206.929,27.118a6.932,6.932,0,0,1,7.193-7.22,6.24,6.24,0,0,1,5.395,2.615l-1.008.736a5.191,5.191,0,0,0-4.386-2.125,5.645,5.645,0,0,0-5.8,5.994,5.645,5.645,0,0,0,5.8,5.994,5.192,5.192,0,0,0,4.386-2.125l1.008.736a6.306,6.306,0,0,1-5.395,2.615,6.947,6.947,0,0,1-7.193-7.22" transform="translate(1672.524 3089.987)" fill="#383c3c"/>
    <path id="Tracé_38" data-name="Tracé 38" d="M272.521,25.21v9.018h-1.307V31.694a5.463,5.463,0,0,1-5.122,2.643c-3.187,0-5.122-1.634-5.122-4.059,0-2.152,1.362-3.978,5.313-3.978h4.877V25.155c0-2.643-1.444-4.059-4.223-4.059a7.381,7.381,0,0,0-4.9,1.8l-.681-.981a8.675,8.675,0,0,1,5.694-2.016c3.514,0,5.476,1.8,5.476,5.313m-1.362,4.822v-2.67H266.31c-2.943,0-3.978,1.226-3.978,2.861,0,1.853,1.444,3,3.95,3a4.875,4.875,0,0,0,4.877-3.188" transform="translate(1634.466 3089.988)" fill="#383c3c"/>
    <path id="Tracé_39" data-name="Tracé 39" d="M66,19.912a7,7,0,0,0-6.981,6.981c0,2.793.931,3.607,6.283,11.286a.872.872,0,0,0,1.4,0c5.352-7.679,6.283-8.494,6.283-11.286A7,7,0,0,0,66,19.912m0,17.235c-.715-1.024-1.349-1.922-1.909-2.716-3.523-4.994-3.91-5.607-3.91-7.538a5.818,5.818,0,0,1,11.635,0c0,1.931-.387,2.544-3.91,7.538C67.34,35.231,66.7,36.137,66,37.147ZM69.245,24.8a.291.291,0,0,0-.412,0l-3.908,3.908-1.766-1.766a.292.292,0,0,0-.412,0l-.411.411a.291.291,0,0,0,0,.411l2.383,2.383a.291.291,0,0,0,.411,0l4.525-4.525a.291.291,0,0,0,0-.411Z" transform="translate(1776.691 3089.978)" fill="#ee7016"/>
    <path id="Tracé_113" data-name="Tracé 113" d="M-32.04-7.39h2.47a2.287,2.287,0,0,1,1.78.68,2.3,2.3,0,0,1,.61,1.6,2.26,2.26,0,0,1-.64,1.62,2.466,2.466,0,0,1-1.84.66h-1.38V0h-1Zm1,3.63h1.4a1.442,1.442,0,0,0,1.075-.39,1.338,1.338,0,0,0,.385-.98,1.325,1.325,0,0,0-.355-.94,1.269,1.269,0,0,0-.975-.38h-1.53Zm4.6.11a3.727,3.727,0,0,1,1.12-2.74,3.685,3.685,0,0,1,2.7-1.13,3.685,3.685,0,0,1,2.7,1.13,3.685,3.685,0,0,1,1.13,2.7,3.685,3.685,0,0,1-1.13,2.7A3.754,3.754,0,0,1-22.65.12a3.667,3.667,0,0,1-2.7-1.09A3.643,3.643,0,0,1-26.44-3.65Zm6.61-.03a2.787,2.787,0,0,0-.81-2.04,2.677,2.677,0,0,0-1.98-.82,2.649,2.649,0,0,0-1.97.83,2.8,2.8,0,0,0-.81,2.03,2.8,2.8,0,0,0,.8,2.02,2.651,2.651,0,0,0,1.98.81,2.651,2.651,0,0,0,1.98-.81A2.741,2.741,0,0,0-19.83-3.68ZM-15.28,0h-.56l-2.54-7.39h1.06l1.78,5.41,1.96-5.41h.45l2.01,5.41,1.75-5.41h1.05L-10.84,0h-.55l-1.95-5.52ZM-2.67,0h-4.6V-7.39h4.6v.95h-3.6v2.21h3.33v.95H-6.27V-.95h3.6ZM3.99,0H2.76L.84-3H-.18V0h-1V-7.39H1.33a2.193,2.193,0,0,1,1.71.66,2.152,2.152,0,0,1,.61,1.54,2.136,2.136,0,0,1-.455,1.34,2.115,2.115,0,0,1-1.265.77ZM1.34-6.44H-.18v2.5H1.14a1.587,1.587,0,0,0,1.105-.35A1.173,1.173,0,0,0,2.63-5.2,1.221,1.221,0,0,0,2.29-6.1,1.273,1.273,0,0,0,1.34-6.44ZM9.83,0H5.23V-7.39h4.6v.95H6.23v2.21H9.56v.95H6.23V-.95h3.6Zm4.14,0H11.32V-7.39h2.75a3.186,3.186,0,0,1,2.48,1,3.87,3.87,0,0,1,.92,2.71,3.725,3.725,0,0,1-.94,2.69A3.342,3.342,0,0,1,13.97,0ZM12.32-6.44V-.95h1.69a2.206,2.206,0,0,0,1.78-.77,3.01,3.01,0,0,0,.64-1.99,2.939,2.939,0,0,0-.64-1.96,2.206,2.206,0,0,0-1.78-.77Zm13,2.4a1.77,1.77,0,0,1,1.025.7A2.076,2.076,0,0,1,26.71-2.12,2.048,2.048,0,0,1,26.1-.63,2.209,2.209,0,0,1,24.42,0H21.37V-7.39h2.92a1.953,1.953,0,0,1,1.49.56,1.782,1.782,0,0,1,.54,1.29,1.636,1.636,0,0,1-.27.92A1.458,1.458,0,0,1,25.32-4.04ZM24.16-6.46h-1.8V-4.4h1.77a1.159,1.159,0,0,0,.85-.315,1.033,1.033,0,0,0,.32-.765.9.9,0,0,0-.315-.695A1.182,1.182,0,0,0,24.16-6.46ZM22.36-.94h1.9a1.392,1.392,0,0,0,1.03-.37,1.172,1.172,0,0,0,.39-.88,1.225,1.225,0,0,0-.4-.925A1.483,1.483,0,0,0,24.22-3.49H22.36Zm9.62-6.45h1.11L30.56-2.66V0h-1V-2.66l-2.5-4.73h1.11l1.89,3.74Z" transform="translate(1773 3121)" fill="#383c3c"/>
  </g>
</svg>
