<svg xmlns="http://www.w3.org/2000/svg" width="32" height="32" viewBox="0 0 32 32">
  <g id="Youtube" transform="translate(-966 -6316)">
    <g id="bkgSocialNetworks" transform="translate(966 6316)">
      <circle id="Ellipse_1" data-name="Ellipse 1" cx="16" cy="16" r="16" fill="#6d727b"/>
    </g>
    <g id="youtube-icon" transform="translate(965.518 6315.5)">
      <path id="Tracé_1024" data-name="Tracé 1024" d="M26.48,16.516a26.389,26.389,0,0,1-.412,4.81,2.506,2.506,0,0,1-1.762,1.762c-1.565.412-7.824.412-7.824.412s-6.242,0-7.823-.428A2.507,2.507,0,0,1,6.9,21.309,26.28,26.28,0,0,1,6.484,16.5,26.375,26.375,0,0,1,6.9,11.691,2.556,2.556,0,0,1,8.659,9.912C10.223,9.5,16.482,9.5,16.482,9.5s6.259,0,7.824.428a2.507,2.507,0,0,1,1.762,1.763,25.08,25.08,0,0,1,.412,4.825ZM14.489,19.5l5.205-3-5.2-3v6Z" fill="#fff"/>
    </g>
  </g>
</svg>
